<?xml version="1.0" encoding="UTF-8" standalone="no"?>
<!-- Created with Inkscape (http://www.inkscape.org/) -->

<svg
   width="138.21004mm"
   height="34.144123mm"
   viewBox="0 0 138.21004 34.144123"
   version="1.1"
   id="svg1"
   xml:space="preserve"
   xmlns="http://www.w3.org/2000/svg"
   xmlns:svg="http://www.w3.org/2000/svg"><defs
     id="defs1" /><g
     id="layer1"
     transform="translate(-39.910473,-134.93751)"><ellipse
       style="fill:none;stroke-width:0.187149"
       id="path4"
       cx="105.56023"
       cy="147.30724"
       rx="30.018074"
       ry="29.620483" /><g
       id="g4"
       transform="matrix(0.28073521,0,0,0.33474633,39.998779,134.9375)"><path
         d="m 0,0 c 162.36,0 324.72,0 492,0 0,33.66 0,67.32 0,102 -162.36,0 -324.72,0 -492,0 C 0,68.34 0,34.68 0,0 Z"
         fill="#f60303"
         id="path1" /><path
         d="m 0,0 c 48.18,0 96.36,0 146,0 0,28.71 0,57.42 0,87 C 97.82,87 49.64,87 0,87 0,58.29 0,29.58 0,0 Z"
         fill="#2a2525"
         transform="translate(340,7)"
         id="path2" /><path
         d="m 0,0 c 162.36,0 324.72,0 492,0 0,33.66 0,67.32 0,102 -162.36,0 -324.72,0 -492,0 C 0,68.34 0,34.68 0,0 Z M 9,7 C 5.8006027,33.076504 5.8006027,33.076504 15.0625,41.4375 17.334824,42.700178 19.646056,43.896931 22,45 c 1.462046,1.006925 2.906375,2.041354 4.3125,3.125 C 27.199375,48.74375 28.08625,49.3625 29,50 26.257943,53.06152 23.959855,55.156084 20.230469,56.910156 15.267123,59.314736 15.267123,59.314736 9,66 c 0,9.24 0,18.48 0,28 108.24,0 216.48,0 328,0 0,-28.71 0,-57.42 0,-87 C 228.76,7 120.52,7 9,7 Z m 331,0 c 0,28.71 0,57.42 0,87 48.18,0 96.36,0 146,0 0,-28.71 0,-57.42 0,-87 -48.18,0 -96.36,0 -146,0 z"
         fill="#fefcfc"
         id="path3" /><path
         d="m 0,0 c 162.36,0 324.72,0 492,0 0,33.66 0,67.32 0,102 -162.36,0 -324.72,0 -492,0 C 0,68.34 0,34.68 0,0 Z M 2,2 C -1.8394965,33.63108 -1.8394965,33.63108 9.3125,43.9375 11.831726,45.370564 14.389118,46.74164 17,48 c 1.723389,1.607666 1.723389,1.607666 3,3 -0.81791,0.361219 -0.81791,0.361219 -1.652344,0.729736 C 10.926137,55.309668 8.319807,58.54853 2,65 c 0,11.55 0,23.1 0,35 161.04,0 322.08,0 488,0 0,-32.34 0,-64.68 0,-98 C 328.96,2 167.92,2 2,2 Z"
         fill="#e0cfc3"
         id="path4-0" /><path
         d="m 0,0 c 3.583265,-0.05814085 7.1664084,-0.09364357 10.75,-0.125 1.015781,-0.0167578 2.031563,-0.0335156 3.078125,-0.0507813 0.979688,-0.006445 1.959375,-0.0128906 2.96875,-0.0195313 0.900732,-0.0104736 1.801465,-0.0209473 2.729492,-0.0317383 C 22.196129,0.01800235 23.755114,0.55388147 26,2 28.765837,6.0056943 29.471929,9.1221987 28.660156,13.964844 27.496628,17.551816 25.364145,20.090283 23,23 c 0.835312,0.309375 0.835312,0.309375 1.6875,0.625 3.297164,1.960476 5.641624,3.927579 7.3125,7.375 0.907964,5.665074 0.79327,10.38513 -1.75,15.5625 -4.02207,4.357242 -6.329948,5.8633 -12.457031,6.386719 C 12.175922,53.051347 6.5888327,52.516748 1,52 1.99,51.34 2.98,50.68 4,50 4.437314,47.8642 4.437314,47.8642 4.3405762,45.366699 4.3402363,43.925432 4.3402363,43.925432 4.3398895,42.455048 4.3244057,41.415429 4.3089218,40.37581 4.2929687,39.304687 c -0.00424,-1.06258 -0.00849,-2.12516 -0.012863,-3.21994 C 4.2632739,32.681244 4.225613,29.278326 4.1875,25.875 4.172459,23.571623 4.1587696,21.268237 4.1464844,18.964844 4.1133557,13.309695 4.063112,7.6548893 4,2 2.68,1.34 1.36,0.68 0,0 Z"
         fill="#fef0f0"
         transform="translate(26,24)"
         id="path5" /><path
         d="M 0,0 C 1.764227,-0.02877991 3.5285895,-0.04933763 5.2929687,-0.06640625 6.2754761,-0.07873291 7.2579834,-0.09105957 8.2702637,-0.10375977 12.743631,0.06627701 15.415975,1.4884966 18.621094,4.546875 c 6.153281,6.669744 6.784214,13.090197 6.625,21.96875 C 24.808384,32.713036 23.800901,37.784284 19,42 15.187336,44.541776 12.491304,45.169798 8,45.25 7.13375,45.275781 6.2675,45.301563 5.375,45.328125 2.4687677,44.926606 1.7918418,44.273326 0,42 c -0.36076355,-1.955246 -0.36076355,-1.955246 -0.34057617,-4.196045 2.2659e-4,-0.840645 4.5318e-4,-1.68129 6.8664e-4,-2.547409 0.0154839,-0.903215 0.0309677,-1.80643 0.0469208,-2.737015 0.004245,-0.927989 0.00849,-1.855978 0.0128632,-2.812088 0.016799,-2.965275 0.0544534,-5.929873 0.0926056,-8.894943 0.0150453,-2.009756 0.0287339,-4.019522 0.0410156,-6.029297 C -0.11339908,9.8552071 -0.06160833,4.9277186 0,0 Z"
         fill="#272322"
         transform="translate(361,28)"
         id="path6" /><path
         d="m 0,0 c 3.9834723,-0.07480519 7.9666659,-0.12890718 11.950684,-0.16479492 2.012678,-0.0222992 4.025162,-0.0604416 6.037597,-0.098877 14.759647,-0.11125361 14.759647,-0.11125361 21,4.84179692 0.436992,0.5517187 0.873985,1.1034375 1.324219,1.671875 0.449883,0.5414062 0.899766,1.0828125 1.363281,1.640625 5.43784,8.662046 5.727677,18.2951 3.703125,28.125 C 42.73292,43.683105 37.571007,47.829388 30.8125,51.9375 21.276783,54.594995 10.737549,52.892476 1,52 c 0.4866664,-0.401865 0.9733328,-0.80373 1.4747467,-1.217773 1.9243666,-2.248583 1.9095618,-3.369003 1.929306,-6.297852 0.012684,-0.911045 0.025368,-1.82209 0.038437,-2.760742 -0.00294,-0.981299 -0.00587,-1.962598 -0.0089,-2.973633 0.00786,-1.514487 0.00786,-1.514487 0.015884,-3.05957 0.00642,-2.135082 0.00508,-4.270199 -0.00343,-6.405274 -0.00851,-3.272774 0.020251,-6.543805 0.052002,-9.816406 0.00161,-2.072916 0.00103,-4.145835 -0.00195,-6.21875 0.011234,-0.981299 0.022468,-1.962598 0.034042,-2.973633 C 4.5160647,8.9097998 4.5160647,8.9097998 4.501709,7.515625 4.5015428,6.7141504 4.5013766,5.9126758 4.5012054,5.0869141 3.819392,2.2479862 2.4206179,1.4973583 0,0 Z m 13,4 c -0.07409,5.9264857 -0.128576,11.852703 -0.164795,17.779541 -0.0151,2.016649 -0.03558,4.033266 -0.06152,6.049805 -0.03634,2.896811 -0.0534,5.793188 -0.06665,8.690185 -0.01548,0.903215 -0.03097,1.80643 -0.04692,2.737015 -2.26e-4,0.840645 -4.53e-4,1.68129 -6.86e-4,2.547409 -0.0067,0.739464 -0.01332,1.478927 -0.02019,2.240799 C 13.103968,46.563482 14.003072,47.444105 16,49 21.785814,50.015754 27.123735,49.366945 32,46 37.566997,40.433003 38.131612,34.661916 38.375,27.125 38.246262,19.991418 37.238639,14.474176 32.28125,9.15625 27.734898,5.0722385 24.484408,3.8648893 18.3125,3.9375 17.318633,3.9465234 16.324766,3.9555469 15.300781,3.9648438 14.541523,3.9764453 13.782266,3.9880469 13,4 Z"
         fill="#f6f6f6"
         transform="translate(348,24)"
         id="path7" /><path
         d="m 0,0 c 4.0890159,1.8417246 6.2267953,4.4763961 8.875,8 0.9647557,1.256578 1.929604,2.513085 2.894531,3.769531 0.515142,0.676275 1.030283,1.352549 1.561035,2.049317 1.796038,2.346563 3.611244,4.677278 5.431153,7.005371 0.631157,0.807597 1.262314,1.615195 1.912597,2.447265 0.623101,0.797286 1.246202,1.594571 1.888184,2.416016 1.190122,1.52371 2.379011,3.048384 3.566406,4.574219 0.759057,0.973927 0.759057,0.973927 1.533448,1.967529 C 28.832183,33.777847 29.923444,35.385166 31,37 31,26.11 31,15.22 31,4 28.525,3.01 28.525,3.01 26,2 c 0,-0.33 0,-0.66 0,-1 4.95,0 9.9,0 15,0 -0.99,0.66 -1.98,1.32 -3,2 -0.496816,3.0998232 -0.496816,3.0998232 -0.476563,6.78125 -0.01526,0.681919 -0.03052,1.363838 -0.04625,2.066422 -0.04717,2.217405 -0.07454,4.434602 -0.102188,6.652328 -0.04411,2.261893 -0.09339,4.523636 -0.142899,6.785416 -0.03228,1.492019 -0.06288,2.984076 -0.09177,4.476165 C 37.025951,35.5364 36.789918,41.296995 36.4375,47.0625 36.39351,47.792109 36.34952,48.521719 36.304199,49.273437 36.206701,50.849205 36.104137,52.424658 36,54 32.128831,52.463822 30.170249,50.134521 27.5625,46.9375 27.14146,46.422358 26.72042,45.907217 26.286621,45.376465 18.854629,36.206497 11.428808,26.907197 5,17 4.890453,25.25254 4.949263,33.501934 5.25,41.75 5.264099,42.523921 5.278198,43.297842 5.292725,44.095215 5.3587702,46.559314 5.3587702,46.559314 6,50 c 1.32,0.99 2.64,1.98 4,3 -4.95,0 -9.9,0 -15,0 1.32,-0.99 2.64,-1.98 4,-3 0.61478988,-2.306636 0.61478988,-2.306636 0.54589844,-4.93042 0.0197186,-1.000811 0.0394373,-2.001622 0.0597534,-3.032761 0.001229,-1.078205 0.002457,-2.15641 0.003723,-3.267288 0.0165362,-1.105557 0.0330725,-2.211115 0.0501099,-3.350174 0.048636,-3.535674 0.0698862,-7.070919 0.0905151,-10.606857 0.0281465,-2.395204 0.0580721,-4.790388 0.0898438,-7.185547 C -0.08611612,11.751381 -0.03456514,5.8759301 0,0 Z"
         fill="#fef3f4"
         transform="translate(175,23)"
         id="path8" /><path
         d="m 0,0 c 3,1 3,1 3.9167633,2.7502899 0.2537791,0.7613375 0.5075583,1.5226749 0.7690277,2.3070831 0.2936293,0.8614714 0.5872586,1.7229429 0.8897858,2.6105195 0.3063487,0.9384626 0.6126974,1.8769253 0.9283294,2.8438265 0.3239525,0.960981 0.647905,1.921962 0.9816742,2.912063 1.036845,3.084283 2.057026,6.173793 3.0769196,9.263718 0.690969,2.064818 1.383013,4.129276 2.076172,6.193359 1.550297,4.62395 3.089391,9.251474 4.62088,13.881684 C 18.168712,45.509806 19.083542,48.255163 20,51 c 1.65,0.33 3.3,0.66 5,1 0,0.33 0,0.66 0,1 -4.95,0 -9.9,0 -15,0 C 9.67,50.69 9.34,48.38 9,46 8.6615989,44.18449 8.309209,42.371484 7.9375,40.5625 7.628125,39.056875 7.31875,37.55125 7,36 c -4.95,0 -9.9,0 -15,0 -1.2299571,5.329814 -2.307447,10.575002 -3,16 0.99,0.33 1.98,0.66 3,1 -4.62,0 -9.24,0 -14,0 0.75394,-0.635024 1.507881,-1.270049 2.284668,-1.924316 3.501182,-3.518122 4.677885,-7.641309 6.160644,-12.286622 0.296555,-0.886361 0.59311,-1.772722 0.898652,-2.685943 0.94111,-2.821594 1.861735,-5.649352 2.781036,-8.478119 0.9305492,-2.820109 1.8653005,-5.638777 2.8024597,-8.456696 0.5802183,-1.749222 1.1559355,-3.499946 1.7263794,-5.25238 C -3.7841941,9.1565952 -2.0464477,4.5728316 0,0 Z"
         fill="#f4f4f4"
         transform="translate(416,23)"
         id="path9" /><path
         d="m 0,0 c 5.94,0 11.88,0 18,0 -0.99,0.66 -1.98,1.32 -3,2 -0.304421,2.8389681 -0.419948,5.4558162 -0.398437,8.296875 -0.0029,0.82639 -0.0057,1.65278 -0.0087,2.504211 -0.002,1.751859 0.0035,3.50374 0.01602,5.255555 0.01597,2.669147 2.05e-4,5.336761 -0.01904,8.005859 0.002,1.703128 0.0058,3.406256 0.01172,5.109375 -0.0061,0.793962 -0.01215,1.587924 -0.0184,2.405945 C 14.64405,38.432004 15.292012,41.808783 18,46 c 3.452149,2.301432 4.234793,2.138339 8.1875,1.625 C 27.791667,47.416667 29.395833,47.208333 31,47 c 3.029142,-8.548527 3.498446,-16.80066 3.446045,-25.76416 -0.0086,-2.260493 0.02056,-4.518556 0.052,-6.778809 0.0016,-1.444009 0.001,-2.888024 -0.002,-4.332031 0.0019,-1.2967969 0.0037,-2.5935938 0.0056,-3.9296875 C 34.302,2.5001988 34.302,2.5001988 30,0 c 4.95,0 9.9,0 15,0 -1.32,0.99 -2.64,1.98 -4,3 -0.391313,2.6063233 -0.534368,4.8081838 -0.503906,7.414063 -0.0094,0.729075 -0.01884,1.458151 -0.02855,2.20932 -0.02867,2.334156 -0.03173,4.667299 -0.03005,7.001617 -0.03477,22.166363 -0.03477,22.166363 -5.8125,29.3125 -4.921016,3.866512 -9.026255,4.521571 -15.191406,4.375 C 15.743949,52.838709 13.733317,51.473001 11,49 6.5920749,43.162478 5.8339524,38.755338 5.6835937,31.613281 5.6628126,30.796272 5.6420316,29.979264 5.6206207,29.137497 5.5552692,26.52925 5.4963073,23.920902 5.4375,21.3125 5.3943011,19.543609 5.3506863,17.774729 5.3066406,16.005859 5.1996026,11.670675 5.0982946,7.3353907 5,3 2.525,2.01 2.525,2.01 0,1 0,0.67 0,0.34 0,0 Z"
         fill="#fef4f4"
         transform="translate(63,24)"
         id="path10" /><path
         d="m 0,0 c 8.91,0 17.82,0 27,0 0,3.3 0,6.6 0,10 -0.66,0 -1.32,0 -2,0 C 24.87625,9.360625 24.7525,8.72125 24.625,8.0625 24.41875,7.381875 24.2125,6.70125 24,6 21.7037,4.85185 19.923019,4.6923019 17.375,4.4375 15.93125,4.293125 14.4875,4.14875 13,4 c 0,5.94 0,11.88 0,18 6.435,-0.495 6.435,-0.495 13,-1 0,3.63 0,7.26 0,11 -0.66,0 -1.32,0 -2,0 0,-1.65 0,-3.3 0,-5 -3.63,-0.33 -7.26,-0.66 -11,-1 0.140147,3.312832 0.286836,6.625144 0.4375,9.9375 0.03932,0.945527 0.07863,1.891055 0.119141,2.865234 0.06284,1.348682 0.06284,1.348682 0.126953,2.72461 0.03666,0.832654 0.07332,1.665307 0.111084,2.523193 -10e-4,1.952852 -10e-4,1.952852 1.205322,2.949463 1.68609,0.07205 3.375007,0.08386 5.0625,0.0625 0.919102,-0.009 1.838203,-0.01805 2.785156,-0.02734 C 23.55793,47.023555 24.268203,47.011953 25,47 c 0.66,-1.98 1.32,-3.96 2,-6 0.66,0 1.32,0 2,0 0.07623,3.963886 -0.03184,7.127341 -1,11 C 19.09,52 10.18,52 1,52 1,51.34 1,50.68 1,50 2.485,49.505 2.485,49.505 4,49 4.33,33.49 4.66,17.98 5,2 3.35,1.67 1.7,1.34 0,1 0,0.67 0,0.34 0,0 Z"
         fill="#fef1f1"
         transform="translate(223,24)"
         id="path11" /><path
         d="M 0,0 C 1.5681445,0.02320312 1.5681445,0.02320312 3.1679688,0.046875 5.8125,0.25 5.8125,0.25 7.8125,1.25 c 0,3.63 0,7.26 0,11 -0.66,0 -1.32,0 -2,0 C 5.52375,11.280625 5.235,10.31125 4.9375,9.3125 4.1703532,6.143358 4.1703532,6.143358 1.8125,5.25 0.27226004,5.1804946 -1.2708499,5.1654764 -2.8125,5.1875 -3.6297656,5.1965234 -4.4470312,5.2055469 -5.2890625,5.2148437 -5.9155469,5.2264453 -6.5420312,5.2380469 -7.1875,5.25 c -0.6658388,3.0259406 -1.1050421,5.896007 -1,9 1.8913849,2.811456 1.8913849,2.811456 5,5 6.0337575,4.805542 10.9025783,9.135653 12.375,17.003906 0.3344273,5.340386 -1.3141018,9.659022 -4.375,13.996094 -3.7115485,3.621023 -6.5989697,4.254536 -11.625,4.375 -4.059151,-0.05685 -5.583635,-0.479317 -9.375,-2.375 0,-4.29 0,-8.58 0,-13 0.66,0 1.32,0 2,0 0.290039,0.957129 0.290039,0.957129 0.585937,1.933594 0.260391,0.826289 0.520782,1.652578 0.789063,2.503906 0.255234,0.823711 0.510469,1.647422 0.773437,2.496094 0.660385,2.244386 0.660385,2.244386 2.851563,3.066406 1.54024,0.0695 3.0833499,0.08452 4.625,0.0625 0.8172656,-0.009 1.6345312,-0.01805 2.4765625,-0.02734 0.6264844,-0.0116 1.25296875,-0.0232 1.8984375,-0.03516 1.2582323,-4.637195 1.7865885,-8.902431 0.0625,-13.5 -2.0272097,-2.457224 -3.9392661,-3.946702 -6.5,-5.8125 -5.038389,-3.791101 -7.795062,-7.470628 -8.933594,-13.726563 C -15.907135,10.739896 -14.292642,7.5300605 -11.1875,3.25 -7.3845276,0.41421954 -4.7038477,-0.11686578 0,0 Z"
         fill="#feefef"
         transform="translate(276.1875,22.75)"
         id="path12" /><path
         d="M 0,0 C 0.96164063,0.00644531 1.9232813,0.01289063 2.9140625,0.01953125 5.375,0.1875 5.375,0.1875 7.375,1.1875 c 0,3.63 0,7.26 0,11 -0.66,0 -1.32,0 -2,0 -0.99,-2.31 -1.98,-4.62 -3,-7 -4.0100934,-0.1786463 -4.0100934,-0.1786463 -8,0 -2.3804271,1.9783246 -2.3804271,1.9783246 -2.5195313,5.742188 0.090021,3.467759 0.7732538,5.040886 3.2578126,7.453124 1.1722328,0.999497 2.364552,1.975838 3.5742187,2.929688 C 3.7644123,25.459837 7.7083059,28.899742 8.7734375,35.75 8.7066885,42.691898 7.5123569,46.666515 2.9375,52.0625 -0.90406615,55.062212 -5.133009,54.703958 -9.8203125,54.65625 -13.015776,54.122189 -14.450372,53.594019 -16.625,51.1875 c -0.390625,-2.699219 -0.390625,-2.699219 -0.25,-5.6875 0.03609,-0.993867 0.07219,-1.987734 0.109375,-3.011719 0.04641,-0.759258 0.09281,-1.518515 0.140625,-2.300781 0.99,-0.495 0.99,-0.495 2,-1 0.193359,0.554297 0.386719,1.108594 0.585937,1.679687 0.260391,0.724454 0.520782,1.448907 0.789063,2.195313 0.255234,0.719297 0.510469,1.438594 0.773437,2.179687 0.790341,2.126893 0.790341,2.126893 2.851563,3.945313 4.6179354,0.551245 4.6179354,0.551245 8.6953125,-1.246094 2.0690818,-2.78149 1.78012244,-5.188119 1.64453125,-8.550781 C -0.16021061,33.717859 -5.5247223,30.447611 -9.7226563,27.03125 -12.765424,24.082202 -14.41358,21.496542 -15.09375,17.285156 -15.188532,8.0794155 -15.188532,8.0794155 -12.375,4.5625 -8.177729,0.93758416 -5.5628606,-0.08246828 0,0 Z"
         fill="#fef1f1"
         transform="translate(130.625,22.8125)"
         id="path13" /><path
         d="m 0,0 c 4.95,0 9.9,0 15,0 -0.33,1.32 -0.66,2.64 -1,4 0.565803,2.1490476 0.565803,2.1490476 1.617188,4.2929688 0.539472,1.1920605 0.539472,1.1920605 1.089843,2.4082032 0.38543,0.820488 0.77086,1.640976 1.167969,2.486328 0.377695,0.83209 0.755391,1.66418 1.144531,2.521484 C 20.601334,19.620731 20.601334,19.620731 23,23 c 1.376377,-2.885779 2.721982,-5.78491 4.0625,-8.6875 0.584912,-1.224932 0.584912,-1.224932 1.181641,-2.474609 0.36416,-0.795996 0.72832,-1.591993 1.103515,-2.4121097 C 29.688049,8.6978638 30.028442,7.9699463 30.37915,7.2199707 31.304234,4.5582981 31.304234,4.5582981 30,0 34.29,0 38.58,0 43,0 41.35,1.32 39.7,2.64 38,4 27.609559,18.367592 24.152663,32.62135 26,50 c 1.65,0 3.3,0 5,0 0,0.66 0,1.32 0,2 -5.94,0 -11.88,0 -18,0 1.32,-1.32 2.64,-2.64 4,-4 C 20.176248,32.581632 14.061959,19.872378 6,7 4.1033184,4.4467748 2.2420468,2.2420468 0,0 Z"
         fill="#f8f7f7"
         transform="translate(433,24)"
         id="path14" /><path
         d="M 0,0 C 1.2858398,0.00966797 1.2858398,0.00966797 2.5976563,0.01953125 4.9375,0.1875 4.9375,0.1875 7.9375,1.1875 c 0,3.63 0,7.26 0,11 -0.66,0 -1.32,0 -2,0 C 5.628125,11.218125 5.31875,10.24875 5,9.25 4.2422666,6.3468421 4.2422666,6.3468421 2.9375,5.1875 c -4.0165714,-0.2291824 -4.0165714,-0.2291824 -8,0 -2.371454,1.9750827 -2.371454,1.9750827 -2.5546875,5.703125 0.093661,3.638004 0.9672129,5.241502 3.546875,7.78125 1.2748593,1.111213 2.5700352,2.199475 3.8828125,3.265625 1.2935098,1.09372 2.5827456,2.19252 3.8671875,3.296875 0.8640747,0.709146 0.8640747,0.709146 1.7456055,1.432617 3.3855056,3.40409 3.8276828,6.716905 3.887207,11.395508 -0.095076,5.210168 -0.7343995,8.189216 -4.375,12.125 -0.66,0.78375 -1.32,1.5675 -2,2.375 -4.7247679,2.559249 -9.7342314,2.270094 -15,1.625 -0.99,-0.66 -1.98,-1.32 -3,-2 -0.292969,-3.039063 -0.292969,-3.039063 -0.1875,-6.625 0.02707,-1.188516 0.05414,-2.377031 0.08203,-3.601563 0.05221,-1.372851 0.05221,-1.372851 0.105469,-2.773437 2,3 2,3 2.9375,5.5625 0.933883,2.742541 0.933883,2.742541 4.0625,4.4375 3.5,0.583333 3.5,0.583333 7,0 2.3697384,-2.599068 2.9136488,-4.492687 3.5,-7.9375 C 1.37849,34.763564 -4.34161,30.933825 -9.1953125,26.996094 -12.2228,24.063611 -13.854983,21.472375 -14.53125,17.285156 -14.626032,8.0794155 -14.626032,8.0794155 -11.8125,4.5625 -7.8340442,1.1265609 -5.273992,-0.08750213 0,0 Z"
         fill="#fef5f5"
         transform="translate(309.0625,22.8125)"
         id="path15" /><path
         d="m 0,0 c 5.61,0 11.22,0 17,0 -1.32,0.99 -2.64,1.98 -4,3 -0.576076,2.1460172 -0.576076,2.1460172 -0.454102,4.5632324 3.03e-4,0.920728 6.05e-4,1.841456 9.16e-4,2.7900846 0.02065,0.99071 0.04129,1.98142 0.06256,3.002152 0.0057,1.016773 0.01132,2.033546 0.01715,3.081131 0.02241,3.250777 0.07261,6.500456 0.123474,9.7509 0.02006,2.202458 0.03831,4.404933 0.05469,6.607422 C 12.848814,38.19699 12.915771,43.598417 13,49 c 1.65,0.33 3.3,0.66 5,1 0,0.66 0,1.32 0,2 -5.94,0 -11.88,0 -18,0 1.32,-0.99 2.64,-1.98 4,-3 0.6022402,-2.12225 0.6022402,-2.12225 0.5175781,-4.515625 0.012609,-0.911045 0.025217,-1.82209 0.038208,-2.760742 -0.0081,-0.981299 -0.016194,-1.962598 -0.024536,-2.973633 0.00383,-1.009658 0.00765,-2.019316 0.011597,-3.05957 0.00272,-2.135102 -0.00466,-4.270236 -0.021362,-6.405274 -0.021404,-3.27289 -2.091e-4,-6.543584 0.025391,-9.816406 -0.00264,-2.072922 -0.00777,-4.145842 -0.015625,-6.21875 0.0081,-0.981299 0.016194,-1.962598 0.024536,-2.973633 C 4.5431775,9.3653223 4.5305688,8.4542773 4.5175781,7.515625 4.5143957,6.7141504 4.5112134,5.9126758 4.5079346,5.0869141 4.0893063,2.4050881 4.0893063,2.4050881 0,0 Z"
         fill="#fefcfc"
         transform="translate(146,24)"
         id="path16" /><path
         d="m 0,0 c 5.3669735,3.5779823 10.193696,6.8073915 15.0625,10.875 0.939727,0.781172 1.879453,1.562344 2.847656,2.367188 C 18.599805,13.822266 19.289453,14.402344 20,15 16.178688,18.989041 12.109005,22.425679 7.75,25.8125 6.7948047,26.565635 6.7948047,26.565635 5.8203125,27.333984 1.1318027,31 1.1318027,31 0,31 0,20.77 0,10.54 0,0 Z"
         fill="#252121"
         transform="translate(1,35)"
         id="path17" /><path
         d="M 0,0 C 5.6484375,0.6484375 5.6484375,0.6484375 8.8125,3.8125 12.140068,8.6612419 12.413629,12.105785 12,18 10.843602,20.312796 9.8259017,22.174098 8,24 5.0625,24.1875 5.0625,24.1875 2,24 0,22 0,22 -0.22705078,19.753418 c 0.0104736,-0.911206 0.0209473,-1.822412 0.0317383,-2.761231 0.006445,-0.986132 0.0128906,-1.972265 0.0195313,-2.988281 0.0167578,-1.032539 0.0335156,-2.065078 0.0507813,-3.128906 0.009023,-1.0402734 0.0180469,-2.0805469 0.02734375,-3.1523438 C -0.07403747,5.1482091 -0.04110149,2.5742179 0,0 Z"
         fill="#f80202"
         transform="translate(39,49)"
         id="path18" /><path
         d="M 0,0 C 5,0 5,0 7.3125,1.9375 9.9009182,6.6349997 9.771081,11.085314 8.4140625,16.214844 7,18 7,18 0,19 0,12.73 0,6.46 0,0 Z"
         fill="#f80404"
         transform="translate(39,27)"
         id="path19" /><path
         d="m 0,0 c 2.126003,3.1890046 3.0213624,5.9041457 4.125,9.5625 0.3532031,1.156289 0.7064062,2.312578 1.0703125,3.503906 C 6,16 6,16 6,18 c -3.63,0 -7.26,0 -11,0 0.4532133,-2.063631 0.9127911,-4.125865 1.375,-6.1875 0.2552344,-1.148555 0.5104687,-2.2971094 0.7734375,-3.4804687 C -2.1052755,5.4119265 -1.1956821,2.7604661 0,0 Z"
         fill="#2c2727"
         transform="translate(415,37)"
         id="path20" /><path
         d="M 0,0 C 0.33,0.99 0.66,1.98 1,3 3.31,3 5.62,3 8,3 8.33,2.34 8.66,1.68 9,1 9.33,2.32 9.66,3.64 10,5 6.37,5 2.74,5 -1,5 -0.67,3.35 -0.34,1.7 0,0 Z"
         fill="#363232"
         transform="translate(411,50)"
         id="path21" /></g></g></svg>
